<svg width="32" height="32" viewBox="0 0 32 32" xmlns="http://www.w3.org/2000/svg"><path class="no-fill clipped" d="M19.795 24.21l-6.345-3.05a1.267 1.267 0 0 1-.59-1.69l3.05-6.345c.3-.625 1.06-.895 1.69-.59.86.415 1.355.65 1.355.65l-.005-5.46.835-.005.005 5.855s2.87 1.21 4.155 2.005c.185.115.51.34.645.72.105.305.1.655-.05.965l-3.05 6.345c-.31.635-1.07.905-1.695.6z" fill="#fff"/><g fill="#609926"><path d="M31.135 7.49c-.205-.205-.48-.2-.48-.2s-5.86.33-8.895.4c-.665.015-1.325.03-1.98.035v5.86l-.83-.395c0-1.82-.005-5.46-.005-5.46-1.45.02-4.46-.11-4.46-.11s-7.07-.355-7.84-.425c-.49-.03-1.125-.105-1.95.075-.435.09-1.675.37-2.69 1.345C-.245 10.62.33 13.81.4 14.29c.085.585.345 2.21 1.585 3.625 2.29 2.805 7.22 2.74 7.22 2.74s.605 1.445 1.53 2.775c1.25 1.655 2.535 2.945 3.785 3.1 3.15 0 9.445-.005 9.445-.005s.6.005 1.415-.515c.7-.425 1.325-1.17 1.325-1.17s.645-.69 1.545-2.265c.275-.485.505-.955.705-1.4 0 0 2.76-5.855 2.76-11.555-.055-1.725-.48-2.03-.58-2.13zM6.28 17.695c-1.295-.425-1.845-.935-1.845-.935S3.48 16.09 3 14.77c-.825-2.21-.07-3.56-.07-3.56s.42-1.125 1.925-1.5c.69-.185 1.55-.155 1.55-.155s.355 2.97.785 4.71c.36 1.46 1.24 3.885 1.24 3.885s-1.305-.155-2.15-.455zm15.015 5.38s-.305.725-.98.77c-.29.02-.515-.06-.515-.06l-.265-.105-5.645-2.75s-.545-.285-.64-.78c-.11-.405.135-.905.135-.905L16.1 13.65s.24-.485.61-.65c.03-.015.115-.05.225-.075.405-.105.9.14.9.14l5.535 2.685s.63.285.765.81c.095.37-.025.7-.09.86-.315.77-2.75 5.655-2.75 5.655z"/><path d="M16.34 19.005a.903.903 0 0 0-.865.69.9.9 0 0 0 .455 1c.385.2.875.09 1.135-.27a.902.902 0 0 0-.09-1.155l1.2-2.455c.075.005.185.01.31-.025.205-.045.355-.18.355-.18a11.581 11.581 0 0 1 1.33.67.992.992 0 0 1 .375.37c.095.275-.095.745-.095.745-.115.38-.92 2.03-.92 2.03a.907.907 0 0 0-.885.625.892.892 0 1 0 1.515-.33c.095-.185.185-.37.28-.565.25-.52.675-1.52.675-1.52.045-.085.285-.515.135-1.065-.125-.57-.63-.835-.63-.835-.61-.395-1.46-.76-1.46-.76s0-.205-.055-.355a.9.9 0 0 0-.195-.315l.705-1.45c-.205-.1-.405-.2-.61-.305l-.725 1.475a.9.9 0 0 0-.805.47.897.897 0 0 0 .095.99l-1.23 2.52z"/></g></svg>
